<mxfile host="Electron" modified="2023-10-24T07:03:22.673Z" agent="Mozilla/5.0 (X11; Linux x86_64) AppleWebKit/537.36 (KHTML, like Gecko) draw.io/22.0.3 Chrome/114.0.5735.289 Electron/25.8.4 Safari/537.36" etag="AjTivstPHydg6hyl3SEz" version="22.0.3" type="device">
  <diagram id="C5RBs43oDa-KdzZeNtuy" name="Page-1">
    <mxGraphModel dx="503" dy="705" grid="1" gridSize="10" guides="1" tooltips="1" connect="1" arrows="1" fold="1" page="1" pageScale="1" pageWidth="827" pageHeight="1169" background="#ffffff" math="0" shadow="0">
      <root>
        <mxCell id="WIyWlLk6GJQsqaUBKTNV-0" />
        <mxCell id="WIyWlLk6GJQsqaUBKTNV-1" parent="WIyWlLk6GJQsqaUBKTNV-0" />
        <mxCell id="Qi15xtnJ09Df0GoSAWtn-13" style="edgeStyle=orthogonalEdgeStyle;rounded=0;orthogonalLoop=1;jettySize=auto;html=1;entryX=0.5;entryY=0;entryDx=0;entryDy=0;strokeColor=#050505;" parent="WIyWlLk6GJQsqaUBKTNV-1" source="WIyWlLk6GJQsqaUBKTNV-3" target="Qi15xtnJ09Df0GoSAWtn-4" edge="1">
          <mxGeometry relative="1" as="geometry" />
        </mxCell>
        <mxCell id="WIyWlLk6GJQsqaUBKTNV-3" value="&lt;font color=&quot;#000000&quot;&gt;Начало&lt;/font&gt;" style="rounded=1;whiteSpace=wrap;html=1;fontSize=12;glass=0;strokeWidth=1;shadow=0;arcSize=50;strokeColor=#000000;fillColor=none;" parent="WIyWlLk6GJQsqaUBKTNV-1" vertex="1">
          <mxGeometry x="160" y="80" width="120" height="30" as="geometry" />
        </mxCell>
        <mxCell id="Qi15xtnJ09Df0GoSAWtn-0" value="&lt;font color=&quot;#191919&quot;&gt;is_prime(int n)&lt;br&gt;// определяет является ли число n простым&lt;/font&gt;" style="strokeWidth=2;html=1;shape=mxgraph.flowchart.annotation_2;align=left;labelPosition=right;pointerEvents=1;strokeColor=#000000;" parent="WIyWlLk6GJQsqaUBKTNV-1" vertex="1">
          <mxGeometry x="310" y="70" width="40" height="50" as="geometry" />
        </mxCell>
        <mxCell id="Qi15xtnJ09Df0GoSAWtn-6" style="edgeStyle=orthogonalEdgeStyle;rounded=0;orthogonalLoop=1;jettySize=auto;html=1;entryX=0.5;entryY=0;entryDx=0;entryDy=0;strokeColor=#050505;" parent="WIyWlLk6GJQsqaUBKTNV-1" source="Qi15xtnJ09Df0GoSAWtn-4" target="Qi15xtnJ09Df0GoSAWtn-5" edge="1">
          <mxGeometry relative="1" as="geometry" />
        </mxCell>
        <mxCell id="rvBpZOWKtdbVdG37Z7W6-2" style="edgeStyle=orthogonalEdgeStyle;rounded=0;orthogonalLoop=1;jettySize=auto;html=1;strokeColor=#000000;" edge="1" parent="WIyWlLk6GJQsqaUBKTNV-1" source="Qi15xtnJ09Df0GoSAWtn-4" target="Qi15xtnJ09Df0GoSAWtn-12">
          <mxGeometry relative="1" as="geometry">
            <Array as="points">
              <mxPoint x="363" y="155" />
            </Array>
          </mxGeometry>
        </mxCell>
        <mxCell id="Qi15xtnJ09Df0GoSAWtn-4" value="&lt;font color=&quot;#050505&quot;&gt;i := 2 .. sqrt(n)&lt;/font&gt;" style="shape=hexagon;perimeter=hexagonPerimeter2;whiteSpace=wrap;html=1;fixedSize=1;strokeColor=#000000;fillColor=none;" parent="WIyWlLk6GJQsqaUBKTNV-1" vertex="1">
          <mxGeometry x="137.5" y="130" width="165" height="50" as="geometry" />
        </mxCell>
        <mxCell id="Qi15xtnJ09Df0GoSAWtn-10" style="edgeStyle=orthogonalEdgeStyle;rounded=0;orthogonalLoop=1;jettySize=auto;html=1;entryX=0.5;entryY=0;entryDx=0;entryDy=0;strokeColor=#050505;" parent="WIyWlLk6GJQsqaUBKTNV-1" source="Qi15xtnJ09Df0GoSAWtn-5" target="Qi15xtnJ09Df0GoSAWtn-9" edge="1">
          <mxGeometry relative="1" as="geometry" />
        </mxCell>
        <mxCell id="Qi15xtnJ09Df0GoSAWtn-11" value="&lt;font&gt;Yes&lt;/font&gt;" style="edgeLabel;html=1;align=center;verticalAlign=middle;resizable=0;points=[];fontColor=#030303;labelBackgroundColor=none;" parent="Qi15xtnJ09Df0GoSAWtn-10" vertex="1" connectable="0">
          <mxGeometry x="-0.44" y="-2" relative="1" as="geometry">
            <mxPoint x="-18" as="offset" />
          </mxGeometry>
        </mxCell>
        <mxCell id="Qi15xtnJ09Df0GoSAWtn-14" style="edgeStyle=orthogonalEdgeStyle;rounded=0;orthogonalLoop=1;jettySize=auto;html=1;entryX=0;entryY=0.5;entryDx=0;entryDy=0;exitX=0;exitY=0.5;exitDx=0;exitDy=0;strokeColor=#050505;" parent="WIyWlLk6GJQsqaUBKTNV-1" source="Qi15xtnJ09Df0GoSAWtn-5" target="Qi15xtnJ09Df0GoSAWtn-4" edge="1">
          <mxGeometry relative="1" as="geometry">
            <Array as="points">
              <mxPoint x="80" y="270" />
              <mxPoint x="80" y="155" />
            </Array>
          </mxGeometry>
        </mxCell>
        <mxCell id="Qi15xtnJ09Df0GoSAWtn-15" value="No" style="edgeLabel;html=1;align=center;verticalAlign=middle;resizable=0;points=[];fontColor=#000000;labelBackgroundColor=none;" parent="Qi15xtnJ09Df0GoSAWtn-14" vertex="1" connectable="0">
          <mxGeometry x="-0.7374" y="3" relative="1" as="geometry">
            <mxPoint x="16" y="-23" as="offset" />
          </mxGeometry>
        </mxCell>
        <mxCell id="Qi15xtnJ09Df0GoSAWtn-5" value="&lt;font color=&quot;#000000&quot;&gt;n % i == 0&lt;/font&gt;" style="rhombus;whiteSpace=wrap;html=1;strokeColor=#000000;fillColor=none;" parent="WIyWlLk6GJQsqaUBKTNV-1" vertex="1">
          <mxGeometry x="160" y="210" width="120" height="120" as="geometry" />
        </mxCell>
        <mxCell id="rvBpZOWKtdbVdG37Z7W6-1" style="edgeStyle=orthogonalEdgeStyle;rounded=0;orthogonalLoop=1;jettySize=auto;html=1;strokeColor=#000000;endArrow=none;endFill=0;" edge="1" parent="WIyWlLk6GJQsqaUBKTNV-1" source="Qi15xtnJ09Df0GoSAWtn-9">
          <mxGeometry relative="1" as="geometry">
            <mxPoint x="220" y="450" as="targetPoint" />
          </mxGeometry>
        </mxCell>
        <mxCell id="Qi15xtnJ09Df0GoSAWtn-9" value="&lt;font color=&quot;#0d0d0d&quot;&gt;return false&lt;/font&gt;" style="shape=parallelogram;perimeter=parallelogramPerimeter;whiteSpace=wrap;html=1;fixedSize=1;strokeColor=#030303;fillColor=none;" parent="WIyWlLk6GJQsqaUBKTNV-1" vertex="1">
          <mxGeometry x="160" y="370" width="120" height="60" as="geometry" />
        </mxCell>
        <mxCell id="Qi15xtnJ09Df0GoSAWtn-19" style="edgeStyle=orthogonalEdgeStyle;rounded=0;orthogonalLoop=1;jettySize=auto;html=1;strokeColor=#050505;entryX=0.5;entryY=0;entryDx=0;entryDy=0;" parent="WIyWlLk6GJQsqaUBKTNV-1" source="Qi15xtnJ09Df0GoSAWtn-12" target="Qi15xtnJ09Df0GoSAWtn-17" edge="1">
          <mxGeometry relative="1" as="geometry">
            <mxPoint x="220" y="620" as="targetPoint" />
            <Array as="points">
              <mxPoint x="360" y="450" />
              <mxPoint x="220" y="450" />
            </Array>
          </mxGeometry>
        </mxCell>
        <mxCell id="Qi15xtnJ09Df0GoSAWtn-12" value="&lt;font color=&quot;#000000&quot;&gt;return true&lt;/font&gt;" style="shape=parallelogram;perimeter=parallelogramPerimeter;whiteSpace=wrap;html=1;fixedSize=1;strokeColor=#000000;fillColor=none;" parent="WIyWlLk6GJQsqaUBKTNV-1" vertex="1">
          <mxGeometry x="302.5" y="370" width="120" height="60" as="geometry" />
        </mxCell>
        <mxCell id="Qi15xtnJ09Df0GoSAWtn-17" value="&lt;font color=&quot;#000000&quot;&gt;Конец&lt;/font&gt;" style="rounded=1;whiteSpace=wrap;html=1;fontSize=12;glass=0;strokeWidth=1;shadow=0;arcSize=50;strokeColor=#050505;fillColor=none;" parent="WIyWlLk6GJQsqaUBKTNV-1" vertex="1">
          <mxGeometry x="160" y="470" width="120" height="40" as="geometry" />
        </mxCell>
        <mxCell id="rvBpZOWKtdbVdG37Z7W6-0" style="edgeStyle=orthogonalEdgeStyle;rounded=0;orthogonalLoop=1;jettySize=auto;html=1;exitX=1;exitY=0.5;exitDx=0;exitDy=0;entryX=0.237;entryY=0.487;entryDx=0;entryDy=0;entryPerimeter=0;strokeColor=#000000;dashed=1;endArrow=none;endFill=0;" edge="1" parent="WIyWlLk6GJQsqaUBKTNV-1" source="WIyWlLk6GJQsqaUBKTNV-3" target="Qi15xtnJ09Df0GoSAWtn-0">
          <mxGeometry relative="1" as="geometry" />
        </mxCell>
      </root>
    </mxGraphModel>
  </diagram>
</mxfile>
